<svg width="16" height="16" viewBox="0 0 16 16" fill="none" xmlns="http://www.w3.org/2000/svg">
<path d="M7.99992 7.5C7.72378 7.5 7.49992 7.72386 7.49992 8C7.49992 8.27614 7.72378 8.5 7.99992 8.5V7.5ZM9.99992 8.5C10.2761 8.5 10.4999 8.27614 10.4999 8C10.4999 7.72386 10.2761 7.5 9.99992 7.5V8.5ZM7.99992 10.1667C7.72378 10.1667 7.49992 10.3905 7.49992 10.6667C7.49992 10.9428 7.72378 11.1667 7.99992 11.1667V10.1667ZM9.99992 11.1667C10.2761 11.1667 10.4999 10.9428 10.4999 10.6667C10.4999 10.3905 10.2761 10.1667 9.99992 10.1667V11.1667ZM5.99992 7.5C5.72378 7.5 5.49992 7.72386 5.49992 8C5.49992 8.27614 5.72378 8.5 5.99992 8.5V7.5ZM6.00659 8.5C6.28273 8.5 6.50659 8.27614 6.50659 8C6.50659 7.72386 6.28273 7.5 6.00659 7.5V8.5ZM5.99992 10.1667C5.72378 10.1667 5.49992 10.3905 5.49992 10.6667C5.49992 10.9428 5.72378 11.1667 5.99992 11.1667V10.1667ZM6.00659 11.1667C6.28273 11.1667 6.50659 10.9428 6.50659 10.6667C6.50659 10.3905 6.28273 10.1667 6.00659 10.1667V11.1667ZM12.1666 4.66667V12.6667H13.1666V4.66667H12.1666ZM11.3333 13.5H4.66659V14.5H11.3333V13.5ZM3.83325 12.6667V4.66667H2.83325V12.6667H3.83325ZM4.66659 3.83333H5.99992V2.83333H4.66659V3.83333ZM9.99992 3.83333H11.3333V2.83333H9.99992V3.83333ZM4.66659 13.5C4.20635 13.5 3.83325 13.1269 3.83325 12.6667H2.83325C2.83325 13.6792 3.65406 14.5 4.66659 14.5V13.5ZM12.1666 12.6667C12.1666 13.1269 11.7935 13.5 11.3333 13.5V14.5C12.3458 14.5 13.1666 13.6792 13.1666 12.6667H12.1666ZM13.1666 4.66667C13.1666 3.65414 12.3458 2.83333 11.3333 2.83333V3.83333C11.7935 3.83333 12.1666 4.20643 12.1666 4.66667H13.1666ZM3.83325 4.66667C3.83325 4.20643 4.20635 3.83333 4.66659 3.83333V2.83333C3.65406 2.83333 2.83325 3.65414 2.83325 4.66667H3.83325ZM7.99992 8.5H9.99992V7.5H7.99992V8.5ZM7.99992 11.1667H9.99992V10.1667H7.99992V11.1667ZM7.33325 2.5H8.66659V1.5H7.33325V2.5ZM8.66659 4.16667H7.33325V5.16667H8.66659V4.16667ZM7.33325 4.16667C6.87301 4.16667 6.49992 3.79357 6.49992 3.33333H5.49992C5.49992 4.34586 6.32073 5.16667 7.33325 5.16667V4.16667ZM9.49992 3.33333C9.49992 3.79357 9.12682 4.16667 8.66659 4.16667V5.16667C9.67911 5.16667 10.4999 4.34586 10.4999 3.33333H9.49992ZM8.66659 2.5C9.12682 2.5 9.49992 2.8731 9.49992 3.33333H10.4999C10.4999 2.32081 9.67911 1.5 8.66659 1.5V2.5ZM7.33325 1.5C6.32073 1.5 5.49992 2.32081 5.49992 3.33333H6.49992C6.49992 2.8731 6.87301 2.5 7.33325 2.5V1.5ZM5.99992 8.5H6.00659V7.5H5.99992V8.5ZM5.99992 11.1667H6.00659V10.1667H5.99992V11.1667Z" fill="#111827"/>
</svg>
