<svg width="16" height="16" viewBox="0 0 16 16" fill="none" xmlns="http://www.w3.org/2000/svg">
<path d="M6.22792 2.68377L5.75358 2.84189V2.84189L6.22792 2.68377ZM7.05907 5.17721L6.58473 5.33533H6.58473L7.05907 5.17721ZM5.31134 7.011L5.08773 6.56378C4.84771 6.68379 4.74523 6.97187 4.85552 7.21651L5.31134 7.011ZM8.989 10.6887L8.78349 11.1445C9.02813 11.2548 9.31621 11.1523 9.43622 10.9123L8.989 10.6887ZM9.61213 9.4424L9.16492 9.21879L9.61213 9.4424ZM10.8228 8.94093L10.6647 9.41527V9.41527L10.8228 8.94093ZM13.3162 9.77208L13.4743 9.29773L13.3162 9.77208ZM4 1.5C2.61929 1.5 1.5 2.61929 1.5 4H2.5C2.5 3.17157 3.17157 2.5 4 2.5V1.5ZM5.27924 1.5H4V2.5H5.27924V1.5ZM6.70227 2.52566C6.4981 1.91315 5.92489 1.5 5.27924 1.5V2.5C5.49446 2.5 5.68553 2.63772 5.75358 2.84189L6.70227 2.52566ZM7.53341 5.0191L6.70227 2.52566L5.75358 2.84189L6.58473 5.33533L7.53341 5.0191ZM6.78121 6.83508C7.44888 6.50125 7.76947 5.72727 7.53341 5.0191L6.58473 5.33533C6.66341 5.57138 6.55655 5.82937 6.33399 5.94065L6.78121 6.83508ZM5.53494 7.45821L6.78121 6.83508L6.33399 5.94065L5.08773 6.56378L5.53494 7.45821ZM9.19451 10.2328C7.67586 9.54814 6.45186 8.32414 5.76715 6.80549L4.85552 7.21651C5.64047 8.95749 7.04251 10.3595 8.78349 11.1445L9.19451 10.2328ZM9.16492 9.21879L8.54179 10.4651L9.43622 10.9123L10.0593 9.66601L9.16492 9.21879ZM10.9809 8.46659C10.2727 8.23053 9.49875 8.55113 9.16492 9.21879L10.0593 9.66601C10.1706 9.44345 10.4286 9.33659 10.6647 9.41527L10.9809 8.46659ZM13.4743 9.29773L10.9809 8.46659L10.6647 9.41527L13.1581 10.2464L13.4743 9.29773ZM14.5 10.7208C14.5 10.0751 14.0869 9.50191 13.4743 9.29773L13.1581 10.2464C13.3623 10.3145 13.5 10.5055 13.5 10.7208H14.5ZM14.5 12V10.7208H13.5V12H14.5ZM12 14.5C13.3807 14.5 14.5 13.3807 14.5 12H13.5C13.5 12.8284 12.8284 13.5 12 13.5V14.5ZM1.5 4C1.5 9.79899 6.20101 14.5 12 14.5V13.5C6.75329 13.5 2.5 9.24671 2.5 4H1.5Z" fill="#4B5563"/>
</svg>
