<svg width="16" height="16" viewBox="0 0 16 16" fill="none" xmlns="http://www.w3.org/2000/svg">
<path d="M11.3333 11.3333H12.6667C13.403 11.3333 14 10.7364 14 10V7.33333C14 6.59695 13.403 6 12.6667 6H3.33333C2.59695 6 2 6.59695 2 7.33333V10C2 10.7364 2.59695 11.3333 3.33333 11.3333H4.66667M6 14H10C10.7364 14 11.3333 13.403 11.3333 12.6667V10C11.3333 9.26362 10.7364 8.66667 10 8.66667H6C5.26362 8.66667 4.66667 9.26362 4.66667 10V12.6667C4.66667 13.403 5.26362 14 6 14ZM11.3333 6V3.33333C11.3333 2.59695 10.7364 2 10 2H6C5.26362 2 4.66667 2.59695 4.66667 3.33333V6H11.3333Z" stroke="#4B5563" stroke-linecap="round" stroke-linejoin="round"/>
</svg>
