<svg width="16" height="16" viewBox="0 0 16 16" fill="none" xmlns="http://www.w3.org/2000/svg">
<path d="M8.66667 10.6667H9.16667H8.66667ZM8.66667 5.33337H8.16667H8.66667ZM11.5286 4.86197L11.8821 4.50842V4.50842L11.5286 4.86197ZM13.8047 7.13811L14.1583 6.78456V6.78456L13.8047 7.13811ZM2.66667 3.83337H8V2.83337H2.66667V3.83337ZM8.16667 4.00004V10.6667H9.16667V4.00004H8.16667ZM2.5 10.6667V4.00004H1.5V10.6667H2.5ZM3.33333 10.8334H2.66667V11.8334H3.33333V10.8334ZM8 10.8334H6V11.8334H8V10.8334ZM1.5 10.6667C1.5 11.311 2.02233 11.8334 2.66667 11.8334V10.8334C2.57462 10.8334 2.5 10.7588 2.5 10.6667H1.5ZM8.16667 10.6667C8.16667 10.7588 8.09205 10.8334 8 10.8334V11.8334C8.64433 11.8334 9.16667 11.311 9.16667 10.6667H8.16667ZM8 3.83337C8.09205 3.83337 8.16667 3.90799 8.16667 4.00004H9.16667C9.16667 3.35571 8.64433 2.83337 8 2.83337V3.83337ZM2.66667 2.83337C2.02233 2.83337 1.5 3.35571 1.5 4.00004H2.5C2.5 3.90799 2.57462 3.83337 2.66667 3.83337V2.83337ZM9.16667 10.6667L9.16667 5.33337L8.16667 5.33337L8.16667 10.6667H9.16667ZM9.33333 5.16671H11.0572V4.16671H9.33333V5.16671ZM13.5 7.60952V10.6667H14.5V7.60952H13.5ZM11.175 5.21552L13.4512 7.49167L14.1583 6.78456L11.8821 4.50842L11.175 5.21552ZM10 10.8334H9.33333V11.8334H10V10.8334ZM13.3333 10.8334H12.6667V11.8334H13.3333V10.8334ZM14.5 7.60952C14.5 7.3001 14.3771 7.00335 14.1583 6.78456L13.4512 7.49167C13.4824 7.52292 13.5 7.56532 13.5 7.60952H14.5ZM11.0572 5.16671C11.1014 5.16671 11.1438 5.18427 11.175 5.21552L11.8821 4.50842C11.6634 4.28962 11.3666 4.16671 11.0572 4.16671V5.16671ZM8.16667 10.6667C8.16667 11.311 8.689 11.8334 9.33333 11.8334V10.8334C9.24129 10.8334 9.16667 10.7588 9.16667 10.6667H8.16667ZM13.5 10.6667C13.5 10.7588 13.4254 10.8334 13.3333 10.8334V11.8334C13.9777 11.8334 14.5 11.311 14.5 10.6667H13.5ZM9.16667 5.33337C9.16667 5.24133 9.24129 5.16671 9.33333 5.16671V4.16671C8.689 4.16671 8.16667 4.68904 8.16667 5.33337H9.16667ZM5.5 11.3334C5.5 11.7936 5.1269 12.1667 4.66667 12.1667V13.1667C5.67919 13.1667 6.5 12.3459 6.5 11.3334H5.5ZM4.66667 12.1667C4.20643 12.1667 3.83333 11.7936 3.83333 11.3334H2.83333C2.83333 12.3459 3.65414 13.1667 4.66667 13.1667V12.1667ZM3.83333 11.3334C3.83333 10.8731 4.20643 10.5 4.66667 10.5V9.50004C3.65414 9.50004 2.83333 10.3209 2.83333 11.3334H3.83333ZM4.66667 10.5C5.1269 10.5 5.5 10.8731 5.5 11.3334H6.5C6.5 10.3209 5.67919 9.50004 4.66667 9.50004V10.5ZM12.1667 11.3334C12.1667 11.7936 11.7936 12.1667 11.3333 12.1667V13.1667C12.3459 13.1667 13.1667 12.3459 13.1667 11.3334H12.1667ZM11.3333 12.1667C10.8731 12.1667 10.5 11.7936 10.5 11.3334H9.5C9.5 12.3459 10.3208 13.1667 11.3333 13.1667V12.1667ZM10.5 11.3334C10.5 10.8731 10.8731 10.5 11.3333 10.5V9.50004C10.3208 9.50004 9.5 10.3209 9.5 11.3334H10.5ZM11.3333 10.5C11.7936 10.5 12.1667 10.8731 12.1667 11.3334H13.1667C13.1667 10.3209 12.3459 9.50004 11.3333 9.50004V10.5Z" fill="#4B5563"/>
</svg>
